<?xml version="1.0" encoding="UTF-8" standalone="no"?>
<svg
   xmlns:dc="http://purl.org/dc/elements/1.1/"
   xmlns:cc="http://creativecommons.org/ns#"
   xmlns:rdf="http://www.w3.org/1999/02/22-rdf-syntax-ns#"
   xmlns:svg="http://www.w3.org/2000/svg"
   xmlns="http://www.w3.org/2000/svg"
   id="svg1"
   version="1.1"
   viewBox="0 0 150.40347 145.85779"
   height="145.85779mm"
   width="150.40347mm">
  <metadata
     id="metadata3820">
    <rdf:RDF>
      <cc:Work
         rdf:about="">
        <dc:format>image/svg+xml</dc:format>
        <dc:type
           rdf:resource="http://purl.org/dc/dcmitype/StillImage" />
        <dc:title></dc:title>
      </cc:Work>
    </rdf:RDF>
  </metadata>
  <defs
     id="defs1" />
  <g
     transform="translate(-30.253647,-63.446193)"
     id="layer1">
    <g
       transform="translate(-684.76212,74.344603)"
       id="layer9">
      <g
         id="g3826">
        <g
           id="g1">
          <g
             id="g15"
             style="mix-blend-mode:normal;stroke:#ffffff;stroke-opacity:1"
             transform="translate(15.172414,-4.5517241)">
            <path
               style="fill:#aab4bd;fill-opacity:1;stroke:#aab4bd;stroke-opacity:1"
               d="m 772.72884,138.7626 c -3.62251,-0.77185 -6.77083,-3.79156 -7.59215,-7.282 -0.2923,-1.24221 -0.25605,-3.60405 0.0739,-4.81819 0.73498,-2.70417 2.55466,-4.97831 4.90469,-6.1296 0.76832,-0.37641 1.51867,-0.68438 1.66744,-0.68438 0.22643,0 0.27049,-2.62002 0.27049,-16.08597 V 87.676498 l 2.97098,0.01 2.97098,0.01 v 15.940802 15.94079 l 1.00056,0.35234 c 2.02081,0.71161 4.20252,2.71779 5.28982,4.86422 1.87382,3.69913 1.05898,8.25868 -2.01363,11.2676 -2.52994,2.47749 -5.99206,3.45723 -9.54313,2.70061 z m -46.44861,-18.03121 c -1.91756,-0.5179 -3.16441,-1.24169 -4.60953,-2.67579 -2.19259,-2.17585 -3.09511,-4.22647 -3.09511,-7.03233 0,-4.43313 2.91948,-8.27861 7.22938,-9.5224 1.80217,-0.52008 4.20478,-0.44522 5.95566,0.18557 l 1.40015,0.50442 4.45252,-4.408942 c 2.44889,-2.42493 5.23604,-5.20819 6.19367,-6.18504 l 1.74115,-1.77608 -0.98359,-1.23029 c -4.0891,-5.1147 -6.89491,-11.76812 -7.85986,-18.638138 l -0.1294,-0.921307 h -8.30661 c -7.5039,0 -8.30662,0.03018 -8.30662,0.312279 0,0.502404 -1.1877,2.541726 -2.01877,3.4663 -3.19031,3.549246 -8.84876,4.287756 -12.94945,1.690085 -5.42097,-3.434024 -6.26079,-10.963733 -1.72248,-15.443544 2.01797,-1.991957 4.28686,-2.903843 7.18356,-2.887132 2.80014,0.01615 5.19625,1.047295 7.22376,3.108661 0.85996,0.874322 2.28338,3.282859 2.28338,3.863649 0,0.219645 1.41508,0.264879 8.28635,0.264879 h 8.28636 l 0.34513,-2.07428 c 1.12397,-6.755162 3.89226,-12.942178 8.03313,-17.953709 l 0.99715,-1.206817 -6.27506,-6.147226 -6.27506,-6.147226 -0.54915,0.278088 c -0.86097,0.435996 -2.92898,0.853939 -4.2409,0.857083 -6.33175,0.01517 -11.29697,-6.26805 -9.69947,-12.274143 1.1881,-4.466853 5.11081,-7.496945 9.71527,-7.504547 2.81346,-0.0046 5.25652,1.015403 7.21467,3.012341 2.88822,2.945432 3.67346,6.969227 2.10002,10.761201 l -0.46101,1.111024 6.19257,6.061903 c 4.46804,4.373756 6.26783,6.01688 6.46281,5.900233 0.14863,-0.08892 0.76045,-0.552335 1.3596,-1.029817 2.95451,-2.354547 7.57718,-4.83102 11.21647,-6.008931 1.38844,-0.449387 5.52434,-1.384113 6.12431,-1.384113 0.0489,0 0.089,3.517668 0.089,7.81704 v 7.817041 l -1.03984,0.35605 c -6.19466,2.121096 -11.78538,7.741468 -13.89988,13.973585 -1.69214,4.987306 -1.39013,10.55565 0.82691,15.246198 2.09987,4.44265 5.85048,8.33985 10.05033,10.44315 0.85745,0.42941 2.12229,0.96432 2.81074,1.18867 l 1.25174,0.40791 v 8.0372 8.037202 l -0.44565,-0.0909 c -7.39803,-1.50887 -12.72805,-3.901942 -17.20286,-7.723732 l -1.49758,-1.27903 -6.24411,6.143292 -6.24411,6.1433 0.45857,0.78288 c 1.03623,1.76904 1.3456,4.51945 0.7581,6.73969 -0.45406,1.71596 -1.11891,2.87289 -2.4543,4.27083 -1.94995,2.04129 -4.41808,3.06094 -7.32744,3.02715 -0.82137,-0.01 -1.90344,-0.12809 -2.4046,-0.26345 z m 92.12034,-0.085 c -1.80603,-0.57179 -2.80739,-1.17899 -4.16202,-2.52372 -2.08608,-2.07083 -2.97035,-4.15607 -2.96619,-6.99471 0.003,-1.75067 0.57915,-3.79589 1.31673,-4.67062 0.21598,-0.25615 -0.63523,-1.16726 -5.96308,-6.38269 l -6.21503,-6.083882 -1.15606,1.01603 c -1.59638,1.40302 -4.89248,3.5373 -7.25852,4.70002 -2.32224,1.141202 -5.88318,2.340102 -8.25728,2.780072 -0.92596,0.17159 -1.8841,0.35304 -2.12921,0.40321 l -0.44564,0.0912 v -8.037422 -8.03743 l 1.03984,-0.33376 c 1.39117,-0.44654 3.93523,-1.70308 5.39728,-2.66579 1.66195,-1.09432 4.4695,-3.82212 5.63905,-5.47886 1.22704,-1.73818 2.58921,-4.455885 3.08765,-6.160237 l 0.37937,-1.297194 h 8.24172 8.24172 l -0.1779,1.115266 c -0.88408,5.542355 -3.58517,11.645275 -7.26985,16.425745 l -1.18651,1.53936 0.702,0.78815 c 0.38609,0.43348 3.14576,3.14752 6.13259,6.03118 4.47152,4.317082 5.49017,5.210392 5.7679,5.058182 0.68315,-0.37438 3.12867,-0.89418 4.20693,-0.89418 5.66919,0 10.41834,5.04164 10.04887,10.66777 -0.29017,4.41864 -3.18486,7.9436 -7.40778,9.02073 -1.54191,0.39329 -4.23909,0.35652 -5.60658,-0.0764 z m 18.81622,-44.941502 c -2.8717,-0.74643 -5.53427,-2.894572 -6.64289,-5.359415 l -0.5865,-1.304012 -16.3404,-0.0052 -16.3404,-0.0052 -0.007,-2.817894 -0.007,-2.817894 5.35521,0.01127 c 23.81977,0.05012 27.4395,0.0084 27.4395,-0.315923 0,-0.586604 1.20325,-2.714032 2.10762,-3.726441 1.11792,-1.251448 2.1518,-1.949945 3.93338,-2.657412 1.19354,-0.473958 1.66204,-0.551825 3.36711,-0.559627 2.89948,-0.01327 4.85191,0.71855 6.91128,2.590522 5.99103,5.445864 3.55158,15.016243 -4.32853,16.981536 -1.46178,0.36456 -3.42521,0.3588 -4.8605,-0.0143 z M 796.6307,61.034006 c -0.0967,-0.242098 -0.46636,-1.207833 -0.82156,-2.146079 -2.20127,-5.814554 -7.22041,-10.82484 -12.99628,-12.973343 l -1.64859,-0.613241 v -7.839068 -7.839068 l 0.84177,0.131243 c 5.59332,0.872063 12.0928,3.763572 16.83225,7.488376 0.66391,0.52178 1.25935,0.948675 1.3232,0.948654 0.0639,-2.2e-5 2.88562,-2.771216 6.2706,-6.158211 l 6.15451,-6.158173 -0.45953,-0.988724 c -2.54433,-5.474401 0.97396,-12.204959 7.02599,-13.440869 3.54336,-0.723603 7.0121,0.375612 9.55326,3.027342 3.7951,3.960244 3.66112,9.883306 -0.31156,13.773633 -2.77271,2.715227 -6.79365,3.541782 -10.62777,2.184669 l -1.12875,-0.399527 -5.11031,4.924576 c -2.81068,2.708517 -5.65102,5.391466 -6.31187,5.962109 l -1.20154,1.037532 1.42408,1.784012 c 3.48669,4.367948 6.06443,9.798721 7.20146,15.172001 0.22701,1.072793 0.41274,2.082863 0.41274,2.244598 0,0.257807 -1.00156,0.295523 -8.12317,0.305899 l -8.12318,0.01184 z m -24.57749,-31.91009 -5e-5,-15.468262 -1.41926,-0.667104 c -4.05614,-1.90652 -6.43606,-6.2760514 -5.71102,-10.4854244 0.64982,-3.772717 3.5232,-6.926157 7.31487,-8.027822 1.39483,-0.405264 4.1695,-0.406823 5.57297,-0.0031 3.4815,1.001412 6.4434,3.987453 7.20415,7.262874 0.82214,3.539744 -0.13592,6.778233 -2.76745,9.3546724 -1.09951,1.076497 -3.37643,2.468955 -4.03719,2.468955 -0.15285,0 -0.21501,4.48617 -0.21501,15.516752 v 15.516752 h -2.97098 -2.97098 z"
               id="path15" />
            <path
               style="font-style:italic;font-size:33.53900146px;line-height:0;font-family:'Pro Racing Slant';-inkscape-font-specification:'Pro Racing Slant Italic';fill:#aab4bd;stroke:#aab4bd;stroke-width:1.65056002"
               d="m 897.91954,68.259209 h -8.76141 l -1.22823,-6.468704 h -12.92103 l -2.11257,6.468704 h -7.81157 l 5.37148,-16.507478 c 0.14739,-0.442164 0.26202,-0.900705 0.36028,-1.34287 0.0983,-0.442164 0.0819,-0.851576 -0.0164,-1.260988 -0.0983,-0.393035 -0.36029,-0.753317 -0.7697,-1.06447 h 30.1327 c 1.06447,0 1.86692,0.376659 2.37459,1.146353 0.52404,0.769694 0.60593,1.703152 0.26202,2.767622 l -1.91605,5.879152 c -0.2784,0.900705 -0.81882,1.703152 -1.60489,2.40734 -0.78607,0.704188 -1.65402,1.162729 -2.60386,1.392 z m -6.69797,-9.924138 c 0.47492,0 0.93346,-0.196518 1.392,-0.573177 0.45854,-0.376658 0.76969,-0.818823 0.91708,-1.293741 l 1.04809,-3.209787 c 0.14739,-0.474917 0.11464,-0.867952 -0.0983,-1.211858 -0.22927,-0.343906 -0.57318,-0.507671 -1.0481,-0.507671 h -15.0991 l -2.21082,6.796234 z"
               id="text15"
               transform="scale(0.87732704,1.1398258)"
               aria-label="R" />
          </g>
        </g>
      </g>
    </g>
  </g>
</svg>
