<?xml version="1.0" encoding="UTF-8" standalone="no"?>
<svg
   xmlns:dc="http://purl.org/dc/elements/1.1/"
   xmlns:cc="http://creativecommons.org/ns#"
   xmlns:rdf="http://www.w3.org/1999/02/22-rdf-syntax-ns#"
   xmlns:svg="http://www.w3.org/2000/svg"
   xmlns="http://www.w3.org/2000/svg"
   id="svg1"
   version="1.1"
   viewBox="0 0 204.67863 164.62538"
   height="164.62538mm"
   width="204.67863mm">
  <metadata
     id="metadata3789">
    <rdf:RDF>
      <cc:Work
         rdf:about="">
        <dc:format>image/svg+xml</dc:format>
        <dc:type
           rdf:resource="http://purl.org/dc/dcmitype/StillImage" />
        <dc:title></dc:title>
      </cc:Work>
    </rdf:RDF>
  </metadata>
  <defs
     id="defs1" />
  <g
     transform="translate(-1.3300349,-66.145834)"
     id="layer1">
    <g
       id="g3798">
      <g
         id="g1">
        <g
           id="g61"
           transform="translate(-670.20002,72.49252)">
          <g
             id="g56"
             style="mix-blend-mode:normal;stroke:#ffffff;stroke-opacity:1">
            <path
               style="fill:#aab4bd;fill-opacity:1;stroke:#aab4bd;stroke-opacity:1"
               d="m 772.72884,138.7626 c -3.62251,-0.77185 -6.77083,-3.79156 -7.59215,-7.282 -0.2923,-1.24221 -0.25605,-3.60405 0.0739,-4.81819 0.73498,-2.70417 2.55466,-4.97831 4.90469,-6.1296 0.76832,-0.37641 1.51867,-0.68438 1.66744,-0.68438 0.22643,0 0.27049,-2.62002 0.27049,-16.08597 V 87.676498 l 2.97098,0.01 2.97098,0.01 v 15.940802 15.94079 l 1.00056,0.35234 c 2.02081,0.71161 4.20252,2.71779 5.28982,4.86422 1.87382,3.69913 1.05898,8.25868 -2.01363,11.2676 -2.52994,2.47749 -5.99206,3.45723 -9.54313,2.70061 z m -46.44861,-18.03121 c -1.91756,-0.5179 -3.16441,-1.24169 -4.60953,-2.67579 -2.19259,-2.17585 -3.09511,-4.22647 -3.09511,-7.03233 0,-4.43313 2.91948,-8.27861 7.22938,-9.5224 1.80217,-0.52008 4.20478,-0.44522 5.95566,0.18557 l 1.40015,0.50442 4.45252,-4.408942 c 2.44889,-2.42493 5.23604,-5.20819 6.19367,-6.18504 l 1.74115,-1.77608 -0.98359,-1.23029 c -4.0891,-5.1147 -6.89491,-11.76812 -7.85986,-18.638138 l -0.1294,-0.921307 h -8.30661 c -7.5039,0 -8.30662,0.03018 -8.30662,0.312279 0,0.502404 -1.1877,2.541726 -2.01877,3.4663 -3.19031,3.549246 -8.84876,4.287756 -12.94945,1.690085 -5.42097,-3.434024 -6.26079,-10.963733 -1.72248,-15.443544 2.01797,-1.991957 4.28686,-2.903843 7.18356,-2.887132 2.80014,0.01615 5.19625,1.047295 7.22376,3.108661 0.85996,0.874322 2.28338,3.282859 2.28338,3.863649 0,0.219645 1.41508,0.264879 8.28635,0.264879 h 8.28636 l 0.34513,-2.07428 c 1.12397,-6.755162 3.89226,-12.942178 8.03313,-17.953709 l 0.99715,-1.206817 -6.27506,-6.147226 -6.27506,-6.147226 -0.54915,0.278088 c -0.86097,0.435996 -2.92898,0.853939 -4.2409,0.857083 -6.33175,0.01517 -11.29697,-6.26805 -9.69947,-12.274143 1.1881,-4.466853 5.11081,-7.496945 9.71527,-7.504547 2.81346,-0.0046 5.25652,1.015403 7.21467,3.012341 2.88822,2.945432 3.67346,6.969227 2.10002,10.761201 l -0.46101,1.111024 6.19257,6.061903 c 4.46804,4.373756 6.26783,6.01688 6.46281,5.900233 0.14863,-0.08892 0.76045,-0.552335 1.3596,-1.029817 2.95451,-2.354547 7.57718,-4.83102 11.21647,-6.008931 1.38844,-0.449387 5.52434,-1.384113 6.12431,-1.384113 0.0489,0 0.089,3.517668 0.089,7.81704 v 7.817041 l -1.03984,0.35605 c -6.19466,2.121096 -11.78538,7.741468 -13.89988,13.973585 -1.69214,4.987306 -1.39013,10.55565 0.82691,15.246198 2.09987,4.44265 5.85048,8.33985 10.05033,10.44315 0.85745,0.42941 2.12229,0.96432 2.81074,1.18867 l 1.25174,0.40791 v 8.0372 8.037202 l -0.44565,-0.0909 c -7.39803,-1.50887 -12.72805,-3.901942 -17.20286,-7.723732 l -1.49758,-1.27903 -6.24411,6.143292 -6.24411,6.1433 0.45857,0.78288 c 1.03623,1.76904 1.3456,4.51945 0.7581,6.73969 -0.45406,1.71596 -1.11891,2.87289 -2.4543,4.27083 -1.94995,2.04129 -4.41808,3.06094 -7.32744,3.02715 -0.82137,-0.01 -1.90344,-0.12809 -2.4046,-0.26345 z m 92.12034,-0.085 c -1.80603,-0.57179 -2.80739,-1.17899 -4.16202,-2.52372 -2.08608,-2.07083 -2.97035,-4.15607 -2.96619,-6.99471 0.003,-1.75067 0.57915,-3.79589 1.31673,-4.67062 0.21598,-0.25615 -0.63523,-1.16726 -5.96308,-6.38269 l -6.21503,-6.083882 -1.15606,1.01603 c -1.59638,1.40302 -4.89248,3.5373 -7.25852,4.70002 -2.32224,1.141202 -5.88318,2.340102 -8.25728,2.780072 -0.92596,0.17159 -1.8841,0.35304 -2.12921,0.40321 l -0.44564,0.0912 v -8.037422 -8.03743 l 1.03984,-0.33376 c 1.39117,-0.44654 3.93523,-1.70308 5.39728,-2.66579 1.66195,-1.09432 4.4695,-3.82212 5.63905,-5.47886 1.22704,-1.73818 2.58921,-4.455885 3.08765,-6.160237 l 0.37937,-1.297194 h 8.24172 8.24172 l -0.1779,1.115266 c -0.88408,5.542355 -3.58517,11.645275 -7.26985,16.425745 l -1.18651,1.53936 0.702,0.78815 c 0.38609,0.43348 3.14576,3.14752 6.13259,6.03118 4.47152,4.317082 5.49017,5.210392 5.7679,5.058182 0.68315,-0.37438 3.12867,-0.89418 4.20693,-0.89418 5.66919,0 10.41834,5.04164 10.04887,10.66777 -0.29017,4.41864 -3.18486,7.9436 -7.40778,9.02073 -1.54191,0.39329 -4.23909,0.35652 -5.60658,-0.0764 z m 18.81622,-44.941502 c -2.8717,-0.74643 -5.53427,-2.894572 -6.64289,-5.359415 l -0.5865,-1.304012 -16.3404,-0.0052 -16.3404,-0.0052 -0.007,-2.817894 -0.007,-2.817894 5.35521,0.01127 c 23.81977,0.05012 27.4395,0.0084 27.4395,-0.315923 0,-0.586604 1.20325,-2.714032 2.10762,-3.726441 1.11792,-1.251448 2.1518,-1.949945 3.93338,-2.657412 1.19354,-0.473958 1.66204,-0.551825 3.36711,-0.559627 2.89948,-0.01327 4.85191,0.71855 6.91128,2.590522 5.99103,5.445864 3.55158,15.016243 -4.32853,16.981536 -1.46178,0.36456 -3.42521,0.3588 -4.8605,-0.0143 z M 796.6307,61.034006 c -0.0967,-0.242098 -0.46636,-1.207833 -0.82156,-2.146079 -2.20127,-5.814554 -7.22041,-10.82484 -12.99628,-12.973343 l -1.64859,-0.613241 v -7.839068 -7.839068 l 0.84177,0.131243 c 5.59332,0.872063 12.0928,3.763572 16.83225,7.488376 0.66391,0.52178 1.25935,0.948675 1.3232,0.948654 0.0639,-2.2e-5 2.88562,-2.771216 6.2706,-6.158211 l 6.15451,-6.158173 -0.45953,-0.988724 c -2.54433,-5.474401 0.97396,-12.204959 7.02599,-13.440869 3.54336,-0.723603 7.0121,0.375612 9.55326,3.027342 3.7951,3.960244 3.66112,9.883306 -0.31156,13.773633 -2.77271,2.715227 -6.79365,3.541782 -10.62777,2.184669 l -1.12875,-0.399527 -5.11031,4.924576 c -2.81068,2.708517 -5.65102,5.391466 -6.31187,5.962109 l -1.20154,1.037532 1.42408,1.784012 c 3.48669,4.367948 6.06443,9.798721 7.20146,15.172001 0.22701,1.072793 0.41274,2.082863 0.41274,2.244598 0,0.257807 -1.00156,0.295523 -8.12317,0.305899 l -8.12318,0.01184 z m -24.57749,-31.91009 -5e-5,-15.468262 -1.41926,-0.667104 c -4.05614,-1.90652 -6.43606,-6.2760514 -5.71102,-10.4854244 0.64982,-3.772717 3.5232,-6.926157 7.31487,-8.027822 1.39483,-0.405264 4.1695,-0.406823 5.57297,-0.0031 3.4815,1.001412 6.4434,3.987453 7.20415,7.262874 0.82214,3.539744 -0.13592,6.778233 -2.76745,9.3546724 -1.09951,1.076497 -3.37643,2.468955 -4.03719,2.468955 -0.15285,0 -0.21501,4.48617 -0.21501,15.516752 v 15.516752 h -2.97098 -2.97098 z"
               id="path55" />
          </g>
          <g
             id="text8"
             style="font-size:25.39999962px;font-family:'Pro Racing';-inkscape-font-specification:'Pro Racing';fill:#282828;stroke:#ffffff;stroke-width:1.14881003"
             transform="matrix(1.0517195,0,0,0.95082386,-225.36037,195.03484)"
             aria-label="RaceNode">
            <path
               style="font-style:italic;font-family:'Pro Racing Slant';-inkscape-font-specification:'Pro Racing Slant Italic';fill:#ffffff"
               d="m 878.44248,-39.231552 h -6.63525 l -0.93018,-4.898926 h -9.78545 l -1.5999,4.898926 h -5.91592 l 4.06797,-12.501562 c 0.11162,-0.334864 0.19844,-0.682129 0.27285,-1.016993 0.0744,-0.334863 0.062,-0.644921 -0.0124,-0.95498 -0.0744,-0.297656 -0.27285,-0.570508 -0.58291,-0.806152 h 22.82031 c 0.80615,0 1.41387,0.285254 1.79834,0.868164 0.39688,0.58291 0.45889,1.289843 0.19844,2.095996 l -1.45108,4.452441 c -0.21084,0.682129 -0.62011,1.289844 -1.21543,1.823145 -0.59531,0.5333 -1.25263,0.880566 -1.97197,1.054199 z m -5.07256,-7.51582 c 0.35967,0 0.70694,-0.148828 1.0542,-0.434082 0.34727,-0.285254 0.58291,-0.620118 0.69453,-0.979785 l 0.79375,-2.43086 c 0.11162,-0.359668 0.0868,-0.657324 -0.0744,-0.917773 -0.17363,-0.260449 -0.43408,-0.384473 -0.79375,-0.384473 h -11.43496 l -1.67432,5.146973 z m 27.47119,7.51582 2.85254,-8.743652 c 0.24805,-0.781348 0.18604,-1.463477 -0.18603,-2.021582 -0.37207,-0.558106 -0.94258,-0.830957 -1.72393,-0.830957 h -17.54931 l -0.76895,2.38125 h 13.80381 c 0.24805,0 0.43408,0.08682 0.5457,0.272851 0.12402,0.186035 0.13643,0.396875 0.062,0.644922 l -0.22324,0.669727 h -12.06748 c -0.78135,0 -1.53789,0.272851 -2.28203,0.830957 -0.73174,0.558105 -1.22783,1.240234 -1.47588,2.021582 l -0.63252,1.922363 c -0.24805,0.781348 -0.19844,1.451074 0.17363,2.00918 0.37207,0.558105 0.95498,0.843359 1.73633,0.843359 z m -4.88652,-2.38125 h -8.33437 c -0.24805,0 -0.43409,-0.08682 -0.54571,-0.272852 -0.12402,-0.186035 -0.14883,-0.396875 -0.062,-0.644922 l 0.33486,-1.029394 c 0.0744,-0.248047 0.23565,-0.458887 0.47129,-0.644922 0.23565,-0.173633 0.48369,-0.260449 0.73174,-0.260449 h 8.33438 z m 27.96728,2.38125 0.78135,-2.38125 h -13.50615 c -0.24805,0 -0.43408,-0.08682 -0.5457,-0.272852 -0.12403,-0.186035 -0.14883,-0.396875 -0.062,-0.644922 l 1.62471,-4.998144 c 0.0868,-0.260449 0.23565,-0.471289 0.47129,-0.657324 0.23564,-0.173633 0.48369,-0.260449 0.73174,-0.260449 h 13.50615 l 0.76895,-2.38125 h -21.31963 c 0.32246,0.235644 0.5209,0.496093 0.60771,0.79375 0.0744,0.310058 0.0868,0.632519 0.0124,0.967382 -0.0744,0.334864 -0.17363,0.669727 -0.27285,1.00459 l -1.94717,5.97793 c -0.24804,0.781348 -0.18603,1.451074 0.18604,2.00918 0.37207,0.558105 0.95498,0.843359 1.72393,0.843359 z m 22.7211,0 h -17.37569 c -0.76894,0 -1.35185,-0.285254 -1.72392,-0.843359 -0.37207,-0.558106 -0.42168,-1.227832 -0.17364,-2.00918 l 2.05879,-6.325195 c 0.13643,-0.409278 0.19844,-0.818555 0.19844,-1.227832 0,-0.458887 -0.22324,-0.855762 -0.65732,-1.190625 h 18.97558 c 0.79375,0 1.36426,0.272851 1.73633,0.830957 0.37207,0.558105 0.43408,1.240234 0.18603,2.021582 l -0.52089,1.575097 c -0.24805,0.781348 -0.74414,1.438672 -1.47588,1.996778 -0.73174,0.558105 -1.50069,0.843359 -2.28203,0.843359 h -12.06748 l -0.33487,1.029394 c -0.0868,0.248047 -0.062,0.458887 0.062,0.644922 0.11163,0.186036 0.29766,0.272852 0.54571,0.272852 h 13.63017 z m -4.01836,-6.709668 c 0.24804,0 0.49609,-0.08682 0.73173,-0.272852 0.23565,-0.173632 0.39688,-0.384472 0.47129,-0.644921 l 0.22325,-0.669727 c 0.0744,-0.248047 0.062,-0.458887 -0.062,-0.644922 -0.11162,-0.186035 -0.29765,-0.272851 -0.5457,-0.272851 h -8.33437 l -0.81856,2.505273 z"
               id="path1" />
            <path
               style="font-style:italic;font-family:'Pro Racing Slant';-inkscape-font-specification:'Pro Racing Slant Italic';fill:#a8b1be;stroke:#a8b1be;stroke-opacity:1"
               d="m 972.2166,-39.231552 4.97334,-15.279687 h -2.61689 l -4.11758,12.662792 -8.4956,-12.662792 h -8.32198 c 0.31006,0.235644 0.5085,0.508496 0.59532,0.818554 0.0744,0.310059 0.0744,0.644922 0,0.979785 -0.0744,0.347266 -0.16123,0.694532 -0.27286,1.029395 l -4.05556,12.451953 h 2.60449 l 4.17959,-12.86123 8.63203,12.86123 z m 21.64209,0 h -15.65176 c -0.76894,0 -1.35185,-0.285254 -1.72392,-0.843359 -0.37207,-0.558106 -0.43409,-1.227832 -0.18604,-2.00918 l 1.92236,-5.891113 c 0.24805,-0.781348 0.74415,-1.463477 1.48829,-2.021582 0.73173,-0.558106 1.50068,-0.830957 2.26962,-0.830957 H 997.629 c 0.78135,0 1.35186,0.272851 1.72393,0.830957 0.37207,0.558105 0.43408,1.240234 0.18603,2.021582 l -1.92236,5.891113 c -0.24805,0.781348 -0.74414,1.451074 -1.48828,2.00918 -0.73174,0.558105 -1.48828,0.843359 -2.26963,0.843359 z m -2.96416,-2.38125 c 0.24805,0 0.48369,-0.08682 0.73174,-0.272852 0.23564,-0.186035 0.38447,-0.396875 0.47129,-0.644922 l 1.6247,-4.998144 c 0.0744,-0.248047 0.062,-0.458887 -0.062,-0.644922 -0.11162,-0.186035 -0.29765,-0.272851 -0.5457,-0.272851 h -8.16074 c -0.24805,0 -0.4961,0.08682 -0.73174,0.272851 -0.23565,0.186035 -0.39688,0.396875 -0.47129,0.644922 l -1.62471,4.998144 c -0.0868,0.248047 -0.062,0.458887 0.062,0.644922 0.11163,0.186036 0.29766,0.272852 0.54571,0.272852 z m 29.15787,2.38125 h -17.7477 c -0.769,0 -1.3519,-0.285254 -1.7239,-0.843359 -0.3721,-0.558106 -0.4217,-1.227832 -0.1737,-2.00918 l 1.9224,-5.891113 c 0.248,-0.781348 0.7441,-1.463477 1.4759,-2.021582 0.7441,-0.558106 1.5007,-0.830957 2.2696,-0.830957 h 12.0799 l 0.4093,-1.265039 c 0.1364,-0.409278 0.2108,-0.818555 0.2108,-1.227832 0,-0.458887 -0.2232,-0.855762 -0.6573,-1.190625 h 6.9081 z m -4.8865,-2.38125 2.22,-6.833691 h -8.3343 c -0.2481,0 -0.4961,0.08682 -0.7318,0.272851 -0.2356,0.186035 -0.3968,0.396875 -0.4713,0.644922 l -1.6247,4.998144 c -0.087,0.248047 -0.062,0.458887 0.062,0.644922 0.1117,0.186036 0.2977,0.272852 0.5457,0.272852 z m 28.2898,2.38125 H 1026.08 c -0.769,0 -1.3519,-0.285254 -1.7239,-0.843359 -0.3721,-0.558106 -0.4217,-1.227832 -0.1737,-2.00918 l 2.0588,-6.325195 c 0.1364,-0.409278 0.1984,-0.818555 0.1984,-1.227832 0,-0.458887 -0.2232,-0.855762 -0.6573,-1.190625 h 18.9756 c 0.7938,0 1.3643,0.272851 1.7363,0.830957 0.3721,0.558105 0.4341,1.240234 0.1861,2.021582 l -0.5209,1.575097 c -0.2481,0.781348 -0.7442,1.438672 -1.4759,1.996778 -0.7317,0.558105 -1.5007,0.843359 -2.282,0.843359 h -12.0675 l -0.3349,1.029394 c -0.087,0.248047 -0.062,0.458887 0.062,0.644922 0.1117,0.186036 0.2977,0.272852 0.5457,0.272852 h 13.6302 z m -4.0184,-6.709668 c 0.2481,0 0.4961,-0.08682 0.7317,-0.272852 0.2357,-0.173632 0.3969,-0.384472 0.4713,-0.644921 l 0.2233,-0.669727 c 0.074,-0.248047 0.062,-0.458887 -0.062,-0.644922 -0.1117,-0.186035 -0.2977,-0.272851 -0.5457,-0.272851 h -8.3344 l -0.8186,2.505273 z"
               id="path2" />
          </g>
        </g>
      </g>
    </g>
  </g>
</svg>
