<?xml version="1.0" encoding="UTF-8" standalone="no"?>
<svg
   xmlns:dc="http://purl.org/dc/elements/1.1/"
   xmlns:cc="http://creativecommons.org/ns#"
   xmlns:rdf="http://www.w3.org/1999/02/22-rdf-syntax-ns#"
   xmlns:svg="http://www.w3.org/2000/svg"
   xmlns="http://www.w3.org/2000/svg"
   xmlns:xlink="http://www.w3.org/1999/xlink"
   id="svg1"
   version="1.1"
   viewBox="0 0 459.90723 98.272003"
   height="98.272003mm"
   width="459.90723mm">
  <metadata
     id="metadata3755">
    <rdf:RDF>
      <cc:Work
         rdf:about="">
        <dc:format>image/svg+xml</dc:format>
        <dc:type
           rdf:resource="http://purl.org/dc/dcmitype/StillImage" />
        <dc:title></dc:title>
      </cc:Work>
    </rdf:RDF>
  </metadata>
  <defs
     id="defs1">
    <linearGradient
       gradientTransform="matrix(1.1654414,0,0,1,-128.34037,-12.799412)"
       y2="70.934357"
       x2="1092.0865"
       y1="70.934357"
       x1="799.86792"
       gradientUnits="userSpaceOnUse"
       id="linearGradient78"
       xlink:href="#linearGradient75" />
    <linearGradient
       id="linearGradient75">
      <stop
         id="stop75"
         offset="0"
         style="stop-color:#dc2626;stop-opacity:1;" />
      <stop
         id="stop76"
         offset="1"
         style="stop-color:#dc2626;stop-opacity:0;" />
    </linearGradient>
    <linearGradient
       gradientTransform="matrix(1.1654414,0,0,1,-128.34037,-12.799412)"
       gradientUnits="userSpaceOnUse"
       y2="70.934372"
       x2="1092.0867"
       y1="70.934372"
       x1="799.86786"
       id="linearGradient74"
       xlink:href="#linearGradient73" />
    <linearGradient
       id="linearGradient73">
      <stop
         id="stop73"
         offset="0"
         style="stop-color:#dc2626;stop-opacity:0;" />
      <stop
         id="stop74"
         offset="1"
         style="stop-color:#dc2626;stop-opacity:1;" />
    </linearGradient>
  </defs>
  <g
     transform="translate(-19.880795,-96.293818)"
     id="layer1">
    <g
       id="g1">
      <g
         transform="translate(-675.53981,106.79468)"
         id="g67">
        <g
           id="g3763">
          <g
             id="g62"
             style="mix-blend-mode:normal;stroke:#ffffff;stroke-opacity:1"
             transform="matrix(0.65160248,0,0,0.67375224,239.40094,-6.2247686)">
            <path
               style="fill:#aab4bd;fill-opacity:1;stroke:#aab4bd;stroke-opacity:1"
               d="m 772.72884,138.7626 c -3.62251,-0.77185 -6.77083,-3.79156 -7.59215,-7.282 -0.2923,-1.24221 -0.25605,-3.60405 0.0739,-4.81819 0.73498,-2.70417 2.55466,-4.97831 4.90469,-6.1296 0.76832,-0.37641 1.51867,-0.68438 1.66744,-0.68438 0.22643,0 0.27049,-2.62002 0.27049,-16.08597 V 87.676498 l 2.97098,0.01 2.97098,0.01 v 15.940802 15.94079 l 1.00056,0.35234 c 2.02081,0.71161 4.20252,2.71779 5.28982,4.86422 1.87382,3.69913 1.05898,8.25868 -2.01363,11.2676 -2.52994,2.47749 -5.99206,3.45723 -9.54313,2.70061 z m -46.44861,-18.03121 c -1.91756,-0.5179 -3.16441,-1.24169 -4.60953,-2.67579 -2.19259,-2.17585 -3.09511,-4.22647 -3.09511,-7.03233 0,-4.43313 2.91948,-8.27861 7.22938,-9.5224 1.80217,-0.52008 4.20478,-0.44522 5.95566,0.18557 l 1.40015,0.50442 4.45252,-4.408942 c 2.44889,-2.42493 5.23604,-5.20819 6.19367,-6.18504 l 1.74115,-1.77608 -0.98359,-1.23029 c -4.0891,-5.1147 -6.89491,-11.76812 -7.85986,-18.638138 l -0.1294,-0.921307 h -8.30661 c -7.5039,0 -8.30662,0.03018 -8.30662,0.312279 0,0.502404 -1.1877,2.541726 -2.01877,3.4663 -3.19031,3.549246 -8.84876,4.287756 -12.94945,1.690085 -5.42097,-3.434024 -6.26079,-10.963733 -1.72248,-15.443544 2.01797,-1.991957 4.28686,-2.903843 7.18356,-2.887132 2.80014,0.01615 5.19625,1.047295 7.22376,3.108661 0.85996,0.874322 2.28338,3.282859 2.28338,3.863649 0,0.219645 1.41508,0.264879 8.28635,0.264879 h 8.28636 l 0.34513,-2.07428 c 1.12397,-6.755162 3.89226,-12.942178 8.03313,-17.953709 l 0.99715,-1.206817 -6.27506,-6.147226 -6.27506,-6.147226 -0.54915,0.278088 c -0.86097,0.435996 -2.92898,0.853939 -4.2409,0.857083 -6.33175,0.01517 -11.29697,-6.26805 -9.69947,-12.274143 1.1881,-4.466853 5.11081,-7.496945 9.71527,-7.504547 2.81346,-0.0046 5.25652,1.015403 7.21467,3.012341 2.88822,2.945432 3.67346,6.969227 2.10002,10.761201 l -0.46101,1.111024 6.19257,6.061903 c 4.46804,4.373756 6.26783,6.01688 6.46281,5.900233 0.14863,-0.08892 0.76045,-0.552335 1.3596,-1.029817 2.95451,-2.354547 7.57718,-4.83102 11.21647,-6.008931 1.38844,-0.449387 5.52434,-1.384113 6.12431,-1.384113 0.0489,0 0.089,3.517668 0.089,7.81704 v 7.817041 l -1.03984,0.35605 c -6.19466,2.121096 -11.78538,7.741468 -13.89988,13.973585 -1.69214,4.987306 -1.39013,10.55565 0.82691,15.246198 2.09987,4.44265 5.85048,8.33985 10.05033,10.44315 0.85745,0.42941 2.12229,0.96432 2.81074,1.18867 l 1.25174,0.40791 v 8.0372 8.037202 l -0.44565,-0.0909 c -7.39803,-1.50887 -12.72805,-3.901942 -17.20286,-7.723732 l -1.49758,-1.27903 -6.24411,6.143292 -6.24411,6.1433 0.45857,0.78288 c 1.03623,1.76904 1.3456,4.51945 0.7581,6.73969 -0.45406,1.71596 -1.11891,2.87289 -2.4543,4.27083 -1.94995,2.04129 -4.41808,3.06094 -7.32744,3.02715 -0.82137,-0.01 -1.90344,-0.12809 -2.4046,-0.26345 z m 92.12034,-0.085 c -1.80603,-0.57179 -2.80739,-1.17899 -4.16202,-2.52372 -2.08608,-2.07083 -2.97035,-4.15607 -2.96619,-6.99471 0.003,-1.75067 0.57915,-3.79589 1.31673,-4.67062 0.21598,-0.25615 -0.63523,-1.16726 -5.96308,-6.38269 l -6.21503,-6.083882 -1.15606,1.01603 c -1.59638,1.40302 -4.89248,3.5373 -7.25852,4.70002 -2.32224,1.141202 -5.88318,2.340102 -8.25728,2.780072 -0.92596,0.17159 -1.8841,0.35304 -2.12921,0.40321 l -0.44564,0.0912 v -8.037422 -8.03743 l 1.03984,-0.33376 c 1.39117,-0.44654 3.93523,-1.70308 5.39728,-2.66579 1.66195,-1.09432 4.4695,-3.82212 5.63905,-5.47886 1.22704,-1.73818 2.58921,-4.455885 3.08765,-6.160237 l 0.37937,-1.297194 h 8.24172 8.24172 l -0.1779,1.115266 c -0.88408,5.542355 -3.58517,11.645275 -7.26985,16.425745 l -1.18651,1.53936 0.702,0.78815 c 0.38609,0.43348 3.14576,3.14752 6.13259,6.03118 4.47152,4.317082 5.49017,5.210392 5.7679,5.058182 0.68315,-0.37438 3.12867,-0.89418 4.20693,-0.89418 5.66919,0 10.41834,5.04164 10.04887,10.66777 -0.29017,4.41864 -3.18486,7.9436 -7.40778,9.02073 -1.54191,0.39329 -4.23909,0.35652 -5.60658,-0.0764 z m 18.81622,-44.941502 c -2.8717,-0.74643 -5.53427,-2.894572 -6.64289,-5.359415 l -0.5865,-1.304012 -16.3404,-0.0052 -16.3404,-0.0052 -0.007,-2.817894 -0.007,-2.817894 5.35521,0.01127 c 23.81977,0.05012 27.4395,0.0084 27.4395,-0.315923 0,-0.586604 1.20325,-2.714032 2.10762,-3.726441 1.11792,-1.251448 2.1518,-1.949945 3.93338,-2.657412 1.19354,-0.473958 1.66204,-0.551825 3.36711,-0.559627 2.89948,-0.01327 4.85191,0.71855 6.91128,2.590522 5.99103,5.445864 3.55158,15.016243 -4.32853,16.981536 -1.46178,0.36456 -3.42521,0.3588 -4.8605,-0.0143 z M 796.6307,61.034006 c -0.0967,-0.242098 -0.46636,-1.207833 -0.82156,-2.146079 -2.20127,-5.814554 -7.22041,-10.82484 -12.99628,-12.973343 l -1.64859,-0.613241 v -7.839068 -7.839068 l 0.84177,0.131243 c 5.59332,0.872063 12.0928,3.763572 16.83225,7.488376 0.66391,0.52178 1.25935,0.948675 1.3232,0.948654 0.0639,-2.2e-5 2.88562,-2.771216 6.2706,-6.158211 l 6.15451,-6.158173 -0.45953,-0.988724 c -2.54433,-5.474401 0.97396,-12.204959 7.02599,-13.440869 3.54336,-0.723603 7.0121,0.375612 9.55326,3.027342 3.7951,3.960244 3.66112,9.883306 -0.31156,13.773633 -2.77271,2.715227 -6.79365,3.541782 -10.62777,2.184669 l -1.12875,-0.399527 -5.11031,4.924576 c -2.81068,2.708517 -5.65102,5.391466 -6.31187,5.962109 l -1.20154,1.037532 1.42408,1.784012 c 3.48669,4.367948 6.06443,9.798721 7.20146,15.172001 0.22701,1.072793 0.41274,2.082863 0.41274,2.244598 0,0.257807 -1.00156,0.295523 -8.12317,0.305899 l -8.12318,0.01184 z m -24.57749,-31.91009 -5e-5,-15.468262 -1.41926,-0.667104 c -4.05614,-1.90652 -6.43606,-6.2760514 -5.71102,-10.4854244 0.64982,-3.772717 3.5232,-6.926157 7.31487,-8.027822 1.39483,-0.405264 4.1695,-0.406823 5.57297,-0.0031 3.4815,1.001412 6.4434,3.987453 7.20415,7.262874 0.82214,3.539744 -0.13592,6.778233 -2.76745,9.3546724 -1.09951,1.076497 -3.37643,2.468955 -4.03719,2.468955 -0.15285,0 -0.21501,4.48617 -0.21501,15.516752 v 15.516752 h -2.97098 -2.97098 z"
               id="path61" />
          </g>
          <path
             style="opacity:1;mix-blend-mode:normal;fill:url(#linearGradient78);fill-opacity:0.60392199;stroke:url(#linearGradient74);stroke-width:2.69899988;stroke-linecap:round;stroke-dasharray:none;stroke-opacity:1"
             d="m 803.8588,58.134958 h 340.5639"
             id="path14" />
          <g
             id="text24"
             style="font-size:44.09719849px;font-family:'Pro Racing';-inkscape-font-specification:'Pro Racing';fill:#282828;stroke:#ffffff;stroke-width:1.14881003"
             transform="matrix(1.0517195,0,0,0.95082386,4.3333334e-6,2.7083333e-6)"
             aria-label="RaceNode">
            <path
               style="font-style:italic;font-family:'Pro Racing Slant';-inkscape-font-specification:'Pro Racing Slant Italic';fill:#ffffff"
               d="m 805.60649,50.504562 h -11.51953 l -1.61489,-8.505075 h -16.98862 l -2.7776,8.505075 h -10.27069 l 7.06244,-21.70409 c 0.19379,-0.581359 0.34451,-1.18425 0.4737,-1.76561 0.12919,-0.58136 0.10766,-1.119655 -0.0215,-1.657951 -0.12919,-0.516764 -0.4737,-0.990465 -1.01199,-1.39957 h 39.61857 c 1.39957,0 2.45463,0.495233 3.12212,1.507229 0.68902,1.011996 0.79668,2.239311 0.34451,3.63888 l -2.51923,7.729929 c -0.36604,1.184251 -1.07659,2.239311 -2.11012,3.16518 -1.03353,0.925869 -2.17471,1.52876 -3.42356,1.830206 z M 796.79997,37.45627 c 0.62442,0 1.22731,-0.258382 1.83021,-0.753614 0.60289,-0.495232 1.01199,-1.076592 1.20578,-1.701015 l 1.37804,-4.22024 c 0.19378,-0.624423 0.15072,-1.141187 -0.12919,-1.593355 -0.30145,-0.452169 -0.75362,-0.667487 -1.37804,-0.667487 h -19.85235 l -2.9068,8.935711 z m 47.69301,13.048292 4.95233,-15.179943 c 0.43063,-1.356506 0.32297,-2.540757 -0.32298,-3.50969 -0.64596,-0.968932 -1.63642,-1.442633 -2.99293,-1.442633 h -30.46754 l -1.33498,4.134113 h 23.96494 c 0.43063,0 0.75361,0.150723 0.9474,0.4737 0.21531,0.322978 0.23685,0.689019 0.10766,1.119656 l -0.38758,1.162719 h -20.95047 c -1.35651,0 -2.66995,0.4737 -3.96186,1.442633 -1.27038,0.968932 -2.13165,2.153183 -2.56229,3.509689 l -1.09812,3.337434 c -0.43064,1.356506 -0.34451,2.519225 0.30144,3.488158 0.64596,0.968932 1.65795,1.464164 3.01446,1.464164 z m -8.48354,-4.134112 h -14.46939 c -0.43064,0 -0.75362,-0.150723 -0.9474,-0.4737 -0.21532,-0.322978 -0.25838,-0.689019 -0.10766,-1.119656 l 0.58136,-1.787142 c 0.12919,-0.430637 0.4091,-0.796678 0.81821,-1.119656 0.4091,-0.301445 0.83974,-0.452168 1.27038,-0.452168 h 14.46939 z m 48.55429,4.134112 1.35651,-4.134112 h -23.44817 c -0.43064,0 -0.75362,-0.150723 -0.9474,-0.4737 -0.21532,-0.322978 -0.25839,-0.689019 -0.10766,-1.119656 l 2.82067,-8.677329 c 0.15072,-0.452169 0.4091,-0.81821 0.81821,-1.141188 0.4091,-0.301445 0.83974,-0.452168 1.27038,-0.452168 h 23.44816 l 1.33498,-4.134113 h -37.01323 c 0.55983,0.409105 0.90434,0.861274 1.05506,1.378038 0.12919,0.538296 0.15073,1.098124 0.0215,1.679483 -0.1292,0.58136 -0.30145,1.162719 -0.47371,1.744079 l -3.38049,10.378344 c -0.43064,1.356506 -0.32298,2.519225 0.32297,3.488158 0.64596,0.968932 1.65796,1.464164 2.99293,1.464164 z m 39.44632,0 h -30.1661 c -1.33497,0 -2.34697,-0.495232 -2.99292,-1.464164 -0.64596,-0.968933 -0.73209,-2.131652 -0.30145,-3.488158 l 3.57428,-10.981236 c 0.23685,-0.71055 0.34451,-1.421101 0.34451,-2.131651 0,-0.796678 -0.38757,-1.485697 -1.14118,-2.067057 h 32.9437 c 1.37804,0 2.36851,0.473701 3.01446,1.442633 0.64596,0.968933 0.75362,2.153184 0.32298,3.50969 l -0.90434,2.734543 c -0.43064,1.356505 -1.29191,2.497693 -2.56229,3.466625 -1.27038,0.968933 -2.60535,1.464165 -3.96185,1.464165 h -20.95048 l -0.58136,1.787142 c -0.15072,0.430637 -0.10766,0.796678 0.10766,1.119656 0.19379,0.322977 0.51676,0.4737 0.9474,0.4737 h 23.66349 z M 917.03374,38.85584 c 0.43063,0 0.86127,-0.150723 1.27037,-0.473701 0.40911,-0.301446 0.68902,-0.667487 0.81821,-1.119655 l 0.38758,-1.162719 c 0.12919,-0.430637 0.10766,-0.796678 -0.10766,-1.119656 -0.19379,-0.322977 -0.51677,-0.4737 -0.9474,-0.4737 h -14.4694 l -1.4211,4.349431 z"
               id="path4" />
            <path
               style="font-style:italic;font-family:'Pro Racing Slant';-inkscape-font-specification:'Pro Racing Slant Italic';fill:#a8b1be;stroke:#a8b1be;stroke-opacity:1"
               d="m 968.4087,50.504562 8.63426,-26.527221 h -4.54321 l -7.14857,21.984004 -14.74931,-21.984004 h -14.44786 c 0.53829,0.409105 0.8828,0.882806 1.03353,1.421102 0.12919,0.538295 0.12919,1.119655 0,1.701015 -0.1292,0.602891 -0.27992,1.205782 -0.4737,1.787142 l -7.04091,21.617962 h 4.52168 l 7.25623,-22.328513 14.98616,22.328513 z m 37.573,0 h -27.17313 c -1.33498,0 -2.34697,-0.495232 -2.99293,-1.464164 -0.64595,-0.968933 -0.75361,-2.131652 -0.32297,-3.488158 l 3.33743,-10.227621 c 0.43064,-1.356506 1.29191,-2.540757 2.58382,-3.50969 1.27038,-0.968932 2.60535,-1.442633 3.94033,-1.442633 h 27.17315 c 1.3565,0 2.347,0.473701 2.9929,1.442633 0.646,0.968933 0.7537,2.153184 0.323,3.50969 l -3.3374,10.227621 c -0.4306,1.356506 -1.2919,2.519225 -2.5838,3.488158 -1.2704,0.968932 -2.5838,1.464164 -3.9404,1.464164 z m -5.1461,-4.134112 c 0.4307,0 0.8398,-0.150723 1.2704,-0.4737 0.4091,-0.322978 0.6675,-0.689019 0.8182,-1.119656 l 2.8207,-8.677329 c 0.1292,-0.430637 0.1077,-0.796678 -0.1077,-1.119656 -0.1938,-0.322977 -0.5167,-0.4737 -0.9474,-0.4737 h -14.16791 c -0.43064,0 -0.86128,0.150723 -1.27038,0.4737 -0.40911,0.322978 -0.68902,0.689019 -0.81821,1.119656 l -2.82067,8.677329 c -0.15072,0.430637 -0.10766,0.796678 0.10766,1.119656 0.19378,0.322977 0.51676,0.4737 0.9474,0.4737 z m 50.6214,4.134112 h -30.8121 c -1.3349,0 -2.3469,-0.495232 -2.9929,-1.464164 -0.6459,-0.968933 -0.7321,-2.131652 -0.3014,-3.488158 l 3.3374,-10.227621 c 0.4306,-1.356506 1.2919,-2.540757 2.5623,-3.50969 1.2919,-0.968932 2.6053,-1.442633 3.9403,-1.442633 h 20.972 l 0.7106,-2.196247 c 0.2368,-0.71055 0.366,-1.421101 0.366,-2.131651 0,-0.796678 -0.3876,-1.485697 -1.1412,-2.067057 h 11.9933 z m -8.4836,-4.134112 3.8542,-11.864041 h -14.4694 c -0.4306,0 -0.8612,0.150723 -1.2703,0.4737 -0.4091,0.322978 -0.689,0.689019 -0.8182,1.119656 l -2.8207,8.677329 c -0.1507,0.430637 -0.1077,0.796678 0.1077,1.119656 0.1937,0.322977 0.5167,0.4737 0.9474,0.4737 z m 49.1142,4.134112 h -30.1662 c -1.3349,0 -2.3469,-0.495232 -2.9929,-1.464164 -0.6459,-0.968933 -0.7321,-2.131652 -0.3014,-3.488158 l 3.5743,-10.981236 c 0.2368,-0.71055 0.3445,-1.421101 0.3445,-2.131651 0,-0.796678 -0.3876,-1.485697 -1.1412,-2.067057 h 32.9437 c 1.378,0 2.3685,0.473701 3.0145,1.442633 0.6459,0.968933 0.7536,2.153184 0.3229,3.50969 l -0.9043,2.734543 c -0.4306,1.356505 -1.2919,2.497693 -2.5623,3.466625 -1.2704,0.968933 -2.6053,1.464165 -3.9619,1.464165 h -20.9504 l -0.5814,1.787142 c -0.1507,0.430637 -0.1076,0.796678 0.1077,1.119656 0.1938,0.322977 0.5167,0.4737 0.9474,0.4737 h 23.6635 z m -6.9764,-11.648722 c 0.4307,0 0.8613,-0.150723 1.2704,-0.473701 0.4091,-0.301446 0.689,-0.667487 0.8182,-1.119655 l 0.3876,-1.162719 c 0.1292,-0.430637 0.1077,-0.796678 -0.1077,-1.119656 -0.1937,-0.322977 -0.5167,-0.4737 -0.9474,-0.4737 h -14.4694 l -1.4211,4.349431 z"
               id="path5" />
          </g>
        </g>
      </g>
    </g>
  </g>
</svg>
